<svg width="24" height="24" viewBox="0 0 24 24" fill="none" xmlns="http://www.w3.org/2000/svg">
<g clip-path="url(#clip0_150_2179)">
<path d="M12 24C18.6274 24 24 18.6274 24 12C24 5.37258 18.6274 0 12 0C5.37258 0 0 5.37258 0 12C0 18.6274 5.37258 24 12 24Z" fill="#3D9635"/>
<path d="M3.52847 6.98617C3.48872 7.60642 3.43772 8.70367 3.90347 8.81467C4.46972 8.87317 4.15772 7.73392 4.36172 7.52692C4.40072 7.42642 4.47272 7.42642 4.47797 7.55317V8.52367C4.47008 8.62672 4.49791 8.72935 4.55678 8.8143C4.61564 8.89926 4.70196 8.96136 4.80122 8.99017C4.95122 8.97892 5.04872 8.98417 5.10647 9.14917C5.13147 9.70567 5.15472 10.2622 5.17622 10.8187C5.17622 10.8187 5.52197 10.9349 5.53847 9.88042C5.50392 9.46287 5.49316 9.04369 5.50622 8.62492C5.50622 8.50792 5.64122 8.49742 5.73722 8.56117C5.88722 8.67817 5.95172 8.82067 6.18122 8.76292C6.53222 8.65117 6.74072 8.46292 6.74672 8.15842C6.73808 7.86413 6.68498 7.57283 6.58922 7.29442C6.60422 7.24117 6.51947 7.10917 6.53747 7.05592C6.59972 7.16767 6.69422 7.15642 6.71522 7.05592C6.68114 6.8507 6.57472 6.66446 6.41522 6.53092C6.29072 6.40867 6.10697 6.43492 6.04022 6.69517C6.03322 7.02722 6.13429 7.35255 6.32822 7.62217C6.38803 7.76998 6.41243 7.92974 6.39947 8.08867C6.35285 8.11756 6.29677 8.12707 6.24323 8.11516C6.18969 8.10324 6.14294 8.07085 6.11297 8.02492C6.11297 8.02492 5.83097 7.78642 5.83097 7.73917C5.89923 7.49257 5.89113 7.23107 5.80772 6.98917C5.77661 6.84394 5.71415 6.70725 5.62472 6.58867C5.55572 6.49867 5.46122 6.49867 5.41622 6.58867C5.317 6.91122 5.32489 7.25723 5.43872 7.57492C5.50097 7.78642 5.60147 7.91917 5.55572 7.91917C5.51672 8.04142 5.43722 8.00917 5.38022 7.87117C5.31169 7.57415 5.27921 7.26996 5.28347 6.96517C5.25722 6.72667 5.22872 6.21517 5.08997 6.08542C5.00522 5.95792 4.87772 6.02167 4.83272 6.14392C4.82192 6.37348 4.82668 6.6035 4.84697 6.83242C4.92998 7.19904 4.98786 7.57091 5.02022 7.94542C5.03222 8.47042 4.75172 8.17042 4.76372 7.90867C4.82363 7.57704 4.82032 7.23707 4.75397 6.90667C4.70822 6.76942 4.65422 6.73717 4.54097 6.76417C4.45097 6.75292 4.22372 7.03417 4.15997 7.50067C4.12661 7.65118 4.10157 7.80341 4.08497 7.95667C4.05197 8.19517 3.91172 8.36467 3.81347 7.91917C3.72647 7.59592 3.67547 6.80092 3.53297 6.98617" fill="white"/>
<path d="M5.07005 9.53037C4.5698 9.81162 4.0838 10.0659 3.5918 10.3306C3.67485 10.0653 3.82697 9.82683 4.03257 9.63968C4.23817 9.45253 4.48985 9.32343 4.7618 9.26562C5.0618 9.27612 4.9868 9.39837 5.07005 9.53037Z" fill="white"/>
<path d="M6.95425 6.02186C6.92162 6.02859 6.8899 6.03917 6.85975 6.05336C6.78324 6.07992 6.71993 6.135 6.68304 6.20711C6.64615 6.27921 6.63852 6.36277 6.66175 6.44036C6.80425 7.41536 6.895 8.15786 7.03675 9.12761C7.0615 9.24461 6.9745 9.39311 6.86575 9.38261C6.679 9.23936 6.6325 8.94761 6.3145 8.96336C6.18022 8.99052 6.05765 9.0586 5.96364 9.15825C5.86962 9.2579 5.80879 9.38423 5.7895 9.51986C5.74669 9.7297 5.74669 9.94603 5.7895 10.1559C5.84608 10.2378 5.92936 10.2976 6.02512 10.325C6.12088 10.3523 6.22317 10.3456 6.3145 10.3059C6.454 10.2421 6.57025 10.0809 6.61975 10.1206C6.6505 10.1844 6.61525 10.6929 5.96125 11.0799C5.557 11.2809 5.2375 11.3341 5.06125 10.9629C4.95625 10.7304 5.0695 9.84986 4.80775 10.0516C4.02925 12.3091 6.6295 12.6271 6.92125 10.1469C6.94 10.0779 6.99625 10.0089 7.039 10.0254C7.0585 10.0359 7.072 10.0621 7.0765 10.1154C7.0165 12.3571 5.06575 12.5056 4.735 11.8059C4.65483 11.5612 4.61531 11.3051 4.618 11.0476C4.6177 10.9584 4.58995 10.8715 4.5385 10.7986C4.459 10.7356 4.35325 10.9104 4.32925 11.2126C4.30539 11.3916 4.29761 11.5723 4.306 11.7526C4.4095 13.5339 6.922 12.7704 7.33225 11.3026C7.41314 10.8398 7.43582 10.3686 7.39975 9.90011H7.408L7.414 9.89486C7.66825 10.1949 8.014 9.93161 8.09275 9.83111C8.10102 9.81613 8.11273 9.80332 8.12693 9.79375C8.14112 9.78417 8.15738 9.77811 8.17438 9.77606C8.19137 9.77401 8.20861 9.77603 8.22467 9.78195C8.24073 9.78787 8.25515 9.79752 8.26675 9.81011C8.31575 9.84935 8.37366 9.87593 8.43536 9.88749C8.49706 9.89906 8.56066 9.89526 8.62054 9.87644C8.68043 9.85761 8.73476 9.82434 8.77875 9.77955C8.82273 9.73476 8.85502 9.67983 8.87275 9.61961C8.91688 9.34044 8.94517 9.05899 8.9575 8.77661C8.85891 8.7981 8.76639 8.84141 8.68675 8.90336C8.67618 8.91547 8.66917 8.93027 8.6665 8.94611C8.65675 9.02111 8.64625 9.10511 8.63425 9.18461C8.63286 9.1917 8.6311 9.19871 8.629 9.20561C8.62304 9.21511 8.61444 9.22267 8.60425 9.22736C8.59224 9.2355 8.57827 9.2403 8.56379 9.24125C8.5493 9.24221 8.53483 9.23929 8.52185 9.2328C8.50887 9.22631 8.49785 9.21648 8.48992 9.20432C8.482 9.19216 8.47745 9.17811 8.47675 9.16361C8.4175 8.86361 8.17 8.81336 8.01925 9.29036C7.91575 9.38636 7.73425 9.40211 7.714 9.26936C7.74025 8.94611 7.62325 8.90336 7.39375 9.05186C7.31875 8.41586 7.24375 7.81211 7.16875 7.17686C7.26625 7.17686 7.35175 7.25636 7.441 7.13411C7.36039 6.75744 7.22335 6.3951 7.0345 6.05936C7.02891 6.05178 7.0229 6.04452 7.0165 6.03761C7.0149 6.03749 7.01335 6.03694 7.01203 6.03601C7.01072 6.03509 7.00967 6.03383 7.009 6.03236H7C6.9955 6.02711 6.988 6.02711 6.98725 6.02186C6.97525 6.02186 6.96475 6.01661 6.95425 6.02186ZM6.25525 9.50411C6.28578 9.50125 6.31634 9.50923 6.34157 9.52664C6.36681 9.54406 6.3851 9.56981 6.39325 9.59936C6.40242 9.62783 6.40462 9.65809 6.39966 9.68759C6.3947 9.71708 6.38273 9.74496 6.36475 9.76886C6.3445 9.80636 6.2785 9.79061 6.229 9.79061C6.20402 9.79296 6.17892 9.7876 6.15707 9.77527C6.13522 9.76293 6.11766 9.74421 6.10675 9.72161C6.08875 9.66311 6.13825 9.60461 6.16225 9.55736C6.18625 9.51011 6.16675 9.54686 6.1705 9.54161C6.19492 9.52181 6.22417 9.50887 6.25525 9.50411Z" fill="white"/>
<path d="M8.7055 5.96875C8.64406 5.97475 8.58442 5.99285 8.53 6.022C8.46693 6.08824 8.42735 6.17335 8.41732 6.26426C8.4073 6.35517 8.42739 6.44686 8.4745 6.52525C8.5735 6.57325 8.6725 6.69025 8.605 6.75025C8.3275 7.08475 7.59925 7.65025 7.5625 7.75225V7.7575V7.76275H7.5685C7.74806 7.79344 7.93138 7.79521 8.1115 7.768V7.76275C8.43947 7.4493 8.74053 7.10886 9.0115 6.745C8.97475 6.70825 8.9365 6.68125 8.89975 6.6445C8.89099 6.63747 8.88392 6.62857 8.87906 6.61844C8.87421 6.60832 8.87168 6.59723 8.87168 6.586C8.87168 6.57477 8.87421 6.56368 8.87906 6.55356C8.88392 6.54343 8.89099 6.53453 8.89975 6.5275C8.97044 6.46365 9.01325 6.37461 9.019 6.27953C9.02475 6.18445 8.99298 6.09091 8.9305 6.019C8.86172 5.98159 8.78356 5.96491 8.7055 5.971M8.671 6.26275C8.71675 6.2575 8.77 6.31075 8.797 6.37375C8.824 6.43675 8.81125 6.51175 8.76625 6.5275C8.72125 6.54325 8.659 6.49075 8.629 6.42175C8.599 6.35275 8.6155 6.2785 8.66275 6.268C8.66275 6.268 8.66275 6.26275 8.671 6.26275Z" fill="white"/>
<path d="M3.64341 11.1314C3.51847 11.3515 3.44063 11.5952 3.41481 11.8469C3.38899 12.0987 3.41575 12.3531 3.49341 12.5939C3.52742 12.6433 3.57587 12.681 3.63212 12.7018C3.68837 12.7226 3.74968 12.7256 3.80766 12.7102C3.98091 12.6254 4.05891 12.2279 4.01616 12.0854C3.95841 11.9789 3.91266 11.9632 3.85341 12.0532C3.73266 12.3292 3.68091 12.1379 3.66966 11.9782C3.65564 11.7162 3.66669 11.4535 3.70266 11.1937C3.73341 10.9769 3.70266 11.0399 3.64191 11.1307" fill="white"/>
<path d="M15.505 10.3367C15.238 9.68415 14.866 9.0429 14.7482 8.79915C14.6305 8.5554 13.7372 7.09815 13.6052 6.92865C13.3142 6.54165 14.0762 7.0929 13.5085 6.3189C13.294 6.1119 13.2835 6.1014 13.0982 5.9319C13.0112 5.8569 12.787 5.7309 12.751 5.9424C12.7305 6.09608 12.7369 6.25214 12.7697 6.40365C12.8262 6.54419 12.902 6.6762 12.9947 6.7959C13.9499 8.21607 14.7805 9.71615 15.4772 11.2794C15.6002 11.2164 15.574 10.4477 15.5012 10.3367" fill="white"/>
<path d="M14.3291 12.5094C14.2743 12.5732 14.4573 12.8642 14.6966 12.8589C15.0933 12.8117 15.4466 12.5589 15.7676 11.8944C15.9013 11.6675 15.9849 11.4146 16.0128 11.1527C16.0529 9.89678 15.9632 8.64012 15.7451 7.40266C15.7312 7.31636 15.7345 7.22817 15.7548 7.14316C15.7803 7.10641 15.8681 7.14316 15.9138 7.05841C15.9836 6.97891 15.7346 6.33241 15.5928 6.08341C15.5426 5.97166 15.5246 5.89816 15.4428 6.09391C15.3414 6.31649 15.2937 6.55976 15.3033 6.80416C15.4931 8.27791 15.5508 9.57916 15.6783 11.0492C15.6996 11.2006 15.6666 11.3547 15.5853 11.4842C15.2483 11.9149 14.8203 12.266 14.3321 12.5124" fill="white"/>
<path d="M18.8868 14.6632C18.5995 14.8492 18.5995 15.066 18.8328 15.0712C19.0701 15.0769 19.3048 15.0208 19.5139 14.9084C19.7229 14.7959 19.8992 14.6311 20.0253 14.43C20.1394 14.169 20.2047 13.8894 20.218 13.605C20.2719 12.2497 20.1996 10.8923 20.002 9.55047C19.9766 9.42477 19.9633 9.29694 19.9623 9.16872C19.9893 9.09972 20.1175 9.17922 20.161 9.09372C20.2315 9.01872 19.8288 8.43147 19.6848 8.18247C19.6368 8.07072 19.6188 7.99647 19.5348 8.19822C19.4401 8.4204 19.4114 8.66517 19.4523 8.90322C19.6655 10.4217 19.7987 11.9503 19.8513 13.4827C19.8412 13.6106 19.8145 13.7367 19.7718 13.8577C19.6627 14.0439 19.532 14.2166 19.3825 14.3722C19.2505 14.478 18.9745 14.5837 18.8853 14.6632" fill="white"/>
<path d="M19.915 11.0623C19.9105 10.6873 19.9248 10.3626 19.9105 10.0813C19.8963 9.80009 19.7845 8.75084 19.7493 8.52884C19.714 8.30684 19.6698 7.96184 19.6158 7.69109C19.5843 7.534 19.5678 7.37429 19.5663 7.21409C19.5873 7.13909 19.6795 7.21934 19.7208 7.12934C19.6736 6.71642 19.5462 6.31669 19.3458 5.95259C19.294 5.84159 19.1958 5.87759 19.0765 6.05909C18.9625 6.17534 19.0015 6.44009 19.0473 6.69509C19.3594 8.35316 19.5111 10.0374 19.5003 11.7246C19.4838 11.8573 19.9195 11.3166 19.915 11.0623Z" fill="white"/>
<path d="M17.8081 8.98434C17.6273 8.97909 17.2508 8.59209 17.1413 8.36484C17.1084 8.25438 17.1158 8.13581 17.1623 8.03034C17.2291 7.98309 17.3318 7.92459 17.4076 7.98309C17.4076 7.98309 17.4871 8.10459 17.4721 8.12109C17.5696 8.17359 17.6123 8.14209 17.6221 8.09409C17.6281 8.01909 17.5913 7.97259 17.5913 7.88784C17.6326 7.64934 17.8718 7.61709 17.9663 7.76559C18.0309 7.8939 18.0652 8.03524 18.0668 8.17884C18.0668 8.24784 17.9686 8.16834 17.9168 8.18409C17.8651 8.19984 17.8486 8.26959 17.8418 8.33409C17.8298 8.50884 17.8133 8.77959 17.8111 8.98584" fill="white"/>
<path d="M14.4914 11.481C14.5424 10.9665 14.4749 9.92771 14.4704 9.62621C14.4539 8.91596 14.3481 7.54271 14.3009 7.31471C14.2439 6.88046 14.4576 7.36271 14.4269 7.10846C14.3327 6.70161 14.1512 6.32007 13.8951 5.99021C13.8156 5.86271 13.8201 5.83646 13.6926 6.02171C13.6115 6.30665 13.6173 6.60931 13.7091 6.89096C13.8806 7.72292 13.9924 8.56607 14.0436 9.41396C14.0978 10.307 14.1046 11.2022 14.0639 12.096C14.1996 12.096 14.4164 11.847 14.4914 11.481Z" fill="white"/>
<path d="M20.5275 10.6599C20.2133 10.0599 19.7333 9.36094 19.6065 9.12244C19.4798 8.88394 18.3968 7.10344 18.2618 6.94744C17.8658 6.48619 18.4433 6.87244 18.1868 6.50719C18.0488 6.32193 17.892 6.15152 17.7188 5.99869C17.6265 5.93494 17.5688 5.80219 17.5388 6.01969C17.5224 6.21349 17.5177 6.40808 17.5245 6.60244C17.5454 6.73417 17.5996 6.85837 17.682 6.96319C18.7514 8.43043 19.7012 9.98117 20.5223 11.6004C20.6423 11.5374 20.601 10.7687 20.5268 10.6629" fill="white"/>
<path d="M16.6923 16.3365C16.6365 16.3532 16.5866 16.3854 16.5482 16.4292C16.5098 16.473 16.4845 16.5267 16.4752 16.5842C16.4659 16.6417 16.4729 16.7006 16.4955 16.7543C16.5181 16.808 16.5554 16.8542 16.603 16.8877C13.6443 16.8877 9.10301 16.8345 8.13326 16.8345C7.58651 16.8345 5.86526 16.7595 5.83301 16.7595C6.00416 17.0205 6.24504 17.2284 6.52833 17.3595C6.81162 17.4906 7.12598 17.5397 7.43576 17.5012C8.75126 17.5012 14.8375 17.4855 16.5678 17.4855C16.524 17.6034 16.5111 17.7305 16.5302 17.8548C16.5494 17.9791 16.6 18.0965 16.6773 18.1957L16.684 18.201C16.685 18.2029 16.6865 18.2044 16.6884 18.2053C16.6903 18.2063 16.6924 18.2066 16.6945 18.2062H16.6998C16.8153 18.2385 16.8655 18.1425 16.906 18.0795C17.3482 18.1042 17.7915 18.1024 18.2335 18.0742C18.2988 18.18 18.3648 18.2805 18.487 18.2647C18.703 18.2115 18.8725 18.1852 18.88 17.6925C18.88 17.6925 18.8575 16.8547 18.367 16.908C18.2508 16.9237 17.926 16.9612 17.926 16.9612C17.551 16.9132 17.2713 16.908 16.8483 16.8862C16.888 16.833 16.9555 16.605 16.8715 16.5255C16.8576 16.5138 16.8414 16.5049 16.824 16.4995C16.8067 16.4941 16.7884 16.4922 16.7703 16.494H16.762C16.762 16.494 16.7553 16.4887 16.753 16.4835V16.4782C16.7337 16.4317 16.7179 16.3838 16.7058 16.335H16.696M16.897 17.535C17.326 17.556 17.731 17.5402 18.1645 17.5612C18.1909 17.597 18.2042 17.6407 18.2021 17.6851C18.2001 17.7295 18.1828 17.7718 18.1533 17.805C18.1533 17.8102 18.1473 17.8102 18.1473 17.8102H18.1353C17.995 17.805 17.9148 17.805 17.7745 17.7997C17.7745 17.7892 17.77 17.784 17.77 17.7735C17.7355 17.6617 17.497 17.673 17.4385 17.763V17.7682V17.7787V17.7892C17.4371 17.7944 17.4371 17.7998 17.4385 17.805C17.2545 17.8167 17.0698 17.8096 16.8873 17.784C16.834 17.709 16.84 17.5717 16.9053 17.535" fill="white"/>
<path d="M9.20761 6.478C8.92036 7.39975 9.37411 8.4175 9.68761 8.32225C9.91261 8.42275 10.0574 7.93525 10.1519 7.405C10.2164 7.255 10.2636 7.24075 10.2966 7.315C10.2869 8.02525 10.3409 8.18425 10.5029 8.3965C10.5463 8.44314 10.5987 8.48053 10.657 8.50641C10.7152 8.5323 10.7781 8.54615 10.8419 8.54713C10.9056 8.54811 10.9689 8.5362 11.0279 8.51212C11.0869 8.48804 11.1405 8.45228 11.1854 8.407C11.2086 8.386 11.4666 8.09425 11.4666 8.09425C11.4803 8.07652 11.4976 8.06199 11.5175 8.05166C11.5373 8.04134 11.5592 8.03547 11.5815 8.03447C11.6039 8.03347 11.6262 8.03736 11.6469 8.04587C11.6676 8.05438 11.6862 8.06731 11.7014 8.08375C11.7846 8.1685 11.7764 8.32225 11.9579 8.42275C12.0537 8.4602 12.1587 8.46763 12.2589 8.44405C12.3591 8.42048 12.4497 8.36701 12.5189 8.29075C12.6224 8.09425 12.6449 8.02525 12.6921 7.951C12.7671 7.84 12.8916 7.888 12.8916 7.92475C12.8804 7.9885 12.8099 8.047 12.8556 8.158C12.9456 8.233 12.9659 8.18425 13.0184 8.1685C13.2014 8.068 13.3394 7.6225 13.3394 7.6225C13.3454 7.453 13.2644 7.46875 13.2074 7.50625C13.1391 7.5535 13.1324 7.57 13.0634 7.61725C12.9749 7.62775 12.8009 7.69675 12.7169 7.54825C12.6276 7.36825 12.6276 7.114 12.5586 6.934C12.5586 6.9235 12.4439 6.65275 12.5519 6.634C12.6051 6.6445 12.7206 6.68125 12.7401 6.57025C12.7986 6.4645 12.6179 6.157 12.4956 6.0085C12.4738 5.97652 12.4447 5.95009 12.4108 5.93134C12.377 5.91258 12.3391 5.90202 12.3004 5.90049C12.2617 5.89896 12.2232 5.9065 12.188 5.92252C12.1527 5.93854 12.1217 5.96259 12.0974 5.99275C12.0263 6.08735 11.9888 6.20295 11.9909 6.32125C11.975 6.39805 11.9752 6.47732 11.9916 6.55401C12.008 6.63071 12.0402 6.70315 12.0861 6.76675C12.257 7.03652 12.3359 7.35437 12.3111 7.67275C12.2821 7.72469 12.2396 7.76786 12.1881 7.79769C12.1367 7.82752 12.0781 7.84291 12.0186 7.84225C11.9436 7.82125 11.8161 7.78375 11.7486 7.2325C11.7645 6.79839 11.7155 6.36435 11.6031 5.94475C11.5454 5.77525 11.5049 5.611 11.3646 5.90275C11.3035 5.99456 11.2643 6.09917 11.25 6.20853C11.2357 6.31788 11.2467 6.42906 11.2821 6.5335C11.3899 6.84837 11.4208 7.1845 11.3721 7.51375C11.3243 7.60861 11.2681 7.69898 11.2041 7.78375C11.1636 7.83685 11.104 7.87211 11.0379 7.88205C10.9718 7.89198 10.9045 7.87583 10.8501 7.837C10.7894 7.80275 10.7381 7.75414 10.7005 7.69543C10.663 7.63672 10.6405 7.5697 10.6349 7.50025C10.6598 7.13773 10.648 6.77363 10.5996 6.4135C10.5141 6.21175 10.3694 6.286 10.3094 6.3445C10.0278 6.69909 9.84445 7.12145 9.77761 7.56925C9.69511 7.8655 9.60736 7.78075 9.54661 7.65925C9.39661 7.5055 9.38761 6.2755 9.20761 6.47725" fill="white"/>
<path d="M10.1795 8.39115C10.1795 8.3964 10.1757 8.3964 10.1712 8.3964V8.40165C10.1525 8.41215 10.1277 8.44965 10.0782 8.49165C10.0363 8.54797 10.0063 8.61233 9.99034 8.68072C9.97434 8.74911 9.9726 8.82006 9.98522 8.88915C9.98897 8.91615 10.1427 9.3984 10.2762 9.74265C10.3881 10.1152 10.4258 10.5061 10.3872 10.8931C10.1728 11.3904 9.81337 11.8115 9.35597 12.1014C9.28923 12.1351 9.2155 12.1527 9.14072 12.1527C9.06594 12.1527 8.9922 12.1351 8.92547 12.1014V12.0961C8.88417 12.0639 8.85182 12.0216 8.83147 11.9733C8.81113 11.925 8.80347 11.8722 8.80922 11.8201C9.27015 11.5363 9.63235 11.1173 9.84647 10.6201C9.9476 10.3404 9.95732 10.0358 9.87422 9.75015C9.84826 9.60541 9.7878 9.46906 9.69797 9.35265C9.69797 9.35265 9.69797 9.35265 9.69797 9.3474C9.75572 9.3159 9.90497 9.44265 9.92972 9.36315C9.88634 9.13507 9.78276 8.92273 9.62972 8.74815C9.60985 8.71898 9.58363 8.69468 9.55304 8.67708C9.52245 8.65947 9.48827 8.64902 9.45307 8.64649C9.41786 8.64397 9.38254 8.64944 9.34975 8.6625C9.31696 8.67556 9.28755 8.69586 9.26372 8.7219C9.13997 8.8014 9.11372 9.08265 9.17147 9.33165C9.23897 9.51165 9.42122 9.5439 9.55097 9.9144V9.91965C9.5757 10.0485 9.56797 10.1815 9.52847 10.3066C9.30836 10.613 9.04716 10.8875 8.75222 11.1226L8.74697 11.1279V11.1339H8.73872C8.73872 11.1279 8.73872 11.1279 8.73872 11.1279C8.74159 11.0874 8.74159 11.0468 8.73872 11.0064C8.73872 10.9006 8.77697 10.6456 8.77397 10.5984V10.5931C8.55272 10.7574 8.47397 11.2554 8.43572 11.4039C7.87187 11.7553 7.34429 12.1618 6.86072 12.6174C6.66722 12.9519 8.18897 12.2251 8.36072 12.1404C8.36072 12.1404 8.36522 12.1404 8.36747 12.1456C8.39964 12.2551 8.44524 12.3602 8.50322 12.4584C8.59204 12.5873 8.7187 12.6853 8.86569 12.7391C9.01268 12.7928 9.17273 12.7996 9.32372 12.7584C9.82336 12.5166 10.2375 12.1284 10.511 11.6454C10.556 11.5704 10.6287 11.5126 10.694 11.5704C10.8512 11.8781 11.0927 12.1348 11.3903 12.3105C11.6879 12.4862 12.0293 12.5736 12.3747 12.5626C12.5645 12.3024 12.4752 12.1704 12.3972 12.1224C12.3725 12.1014 11.987 11.9319 11.9285 11.7624C11.8917 11.6086 11.981 11.4706 12.1662 11.3641C12.694 11.3094 13.2143 11.1975 13.718 11.0304C13.7361 10.8214 13.7938 10.6178 13.8882 10.4304C13.9077 10.3879 13.938 10.3512 13.976 10.3239C13.976 10.3239 13.976 10.3239 13.976 10.3186V10.3134C13.9766 10.3099 13.9766 10.3064 13.976 10.3029L13.8882 10.2444L12.2022 10.2339C12.1854 10.2273 12.1695 10.2185 12.155 10.2076V10.2024V10.1971V10.1919V10.1866V10.1814C12.155 10.1761 12.155 10.1761 12.155 10.1761C12.1682 10.1582 12.1869 10.145 12.2082 10.1386C12.6132 10.0801 13.3272 9.94815 13.3737 9.1689C13.3861 9.08112 13.3803 8.99174 13.3567 8.90629C13.3331 8.82084 13.2923 8.74113 13.2367 8.67209C13.1811 8.60306 13.1119 8.54617 13.0334 8.50494C12.955 8.46371 12.8689 8.43902 12.7805 8.4324C12.6117 8.4686 12.4635 8.56887 12.3671 8.71211C12.2707 8.85535 12.2337 9.03039 12.2637 9.2004C12.2495 9.30165 12.2967 9.5079 12.2022 9.5289C11.5812 9.5979 10.9047 10.0329 10.88 10.3456H10.8717L10.8672 10.3509H10.859L10.8515 10.3456C10.8197 10.3261 10.7948 10.2973 10.7801 10.263C10.7653 10.2288 10.7614 10.1909 10.769 10.1544C10.7406 9.59018 10.5952 9.03801 10.3422 8.5329C10.2567 8.4324 10.2177 8.3949 10.1922 8.38965H10.1817M12.647 9.08415C12.694 9.07931 12.7412 9.09243 12.779 9.1209C12.8087 9.13593 12.8339 9.15855 12.8521 9.18647C12.8703 9.21439 12.8808 9.24663 12.8825 9.2799V9.2904V9.29565V9.30015C12.8825 9.30015 12.8765 9.3054 12.872 9.31065C12.839 9.3474 12.767 9.34215 12.695 9.29415C12.6672 9.27893 12.6434 9.25744 12.6255 9.2314C12.6075 9.20536 12.5959 9.17548 12.5915 9.14415V9.13815C12.5915 9.12765 12.596 9.1224 12.599 9.1224L12.6035 9.1119C12.6035 9.10665 12.6035 9.10665 12.6117 9.1014C12.6169 9.09617 12.6231 9.09207 12.6299 9.08936C12.6368 9.08665 12.6441 9.08538 12.6515 9.08565M11.0832 10.6861H11.0997C11.3321 10.7354 11.5682 10.7655 11.8055 10.7761C12.0012 10.7919 12.098 10.9614 11.915 11.0356C11.732 11.1099 11.5602 11.1579 11.5602 11.4549C11.585 11.5378 11.585 11.6262 11.5602 11.7091C11.5602 11.7144 11.5557 11.7196 11.5527 11.7196V11.7249V11.7301H11.5475L11.5392 11.7354C11.5388 11.7369 11.5379 11.7381 11.5367 11.7391C11.5355 11.74 11.534 11.7406 11.5325 11.7406C11.4875 11.7459 11.4252 11.6934 11.3772 11.6716C11.2481 11.5829 11.1395 11.4674 11.0588 11.3331C10.9781 11.1988 10.9271 11.0488 10.9092 10.8931C10.907 10.868 10.9097 10.8426 10.9174 10.8186C10.925 10.7945 10.9373 10.7722 10.9537 10.7529C10.97 10.7337 10.99 10.7178 11.0125 10.7064C11.035 10.6949 11.0595 10.688 11.0847 10.6861" fill="white"/>
<path d="M5.65519 6.48843C5.85094 6.58893 6.21469 6.54693 6.19969 6.19668C6.19969 6.16518 6.19369 6.05943 6.19144 6.03243C6.15319 5.92668 6.04144 5.94768 6.01894 6.05943C6.01069 6.09093 6.03094 6.14943 6.00394 6.17043C5.97694 6.19143 5.92519 6.17568 5.92894 6.08043C5.92704 6.04969 5.91608 6.0202 5.89744 5.99568C5.89161 5.98917 5.88419 5.9843 5.87591 5.98154C5.86762 5.97878 5.85876 5.97822 5.85019 5.97993C5.82394 5.98518 5.82394 5.99043 5.81194 6.01668C5.80263 6.04218 5.79756 6.06904 5.79694 6.09618C5.79244 6.13293 5.77894 6.14418 5.75644 6.14943C5.73394 6.15468 5.73919 6.15468 5.71669 6.13893C5.70619 6.12243 5.68819 6.11718 5.68819 6.09093C5.6877 6.06247 5.68469 6.03411 5.67919 6.00618C5.66703 5.99041 5.64982 5.97929 5.63044 5.97468C5.52319 5.97468 5.51644 6.11193 5.52319 6.16518C5.51419 6.17568 5.51119 6.41943 5.65519 6.48843Z" fill="white"/>
<path d="M11.3525 9.20199C11.5467 9.30324 12.0087 9.24474 11.8977 8.90199C11.8965 8.84708 11.8925 8.79226 11.8857 8.73774C11.8475 8.63199 11.7402 8.65824 11.714 8.76474C11.708 8.80149 11.729 8.85999 11.7012 8.88099C11.6735 8.90199 11.6217 8.88099 11.6262 8.78574C11.6243 8.75661 11.6132 8.72882 11.5947 8.70624C11.5891 8.70036 11.5821 8.69588 11.5745 8.69314C11.5668 8.69041 11.5586 8.6895 11.5505 8.69049C11.525 8.69574 11.525 8.70099 11.51 8.72724C11.5018 8.75301 11.497 8.77973 11.4957 8.80674C11.4957 8.84424 11.48 8.85474 11.4567 8.85999C11.4335 8.86524 11.4402 8.86524 11.4177 8.84949C11.3952 8.83374 11.3892 8.82849 11.3892 8.80149C11.3902 8.7727 11.3859 8.74397 11.3765 8.71674C11.3655 8.70046 11.3485 8.68914 11.3292 8.68524C11.2242 8.68524 11.2182 8.82249 11.222 8.87574C11.216 8.88099 11.2115 9.12474 11.3555 9.19899" fill="white"/>
<path d="M14.675 8.07828C14.8685 8.17878 15.2338 8.13153 15.2188 7.77828C15.2188 7.75203 15.2128 7.64628 15.2105 7.61403C15.1693 7.51353 15.0605 7.53453 15.038 7.64628C15.029 7.67778 15.0493 7.73628 15.0208 7.75203C15.0065 7.77303 14.9458 7.76253 14.9458 7.66203C14.942 7.63172 14.9312 7.6027 14.9143 7.57728C14.9007 7.57197 14.886 7.57017 14.8715 7.57203C14.846 7.57203 14.846 7.57728 14.8303 7.60353C14.8216 7.631 14.8165 7.65949 14.8153 7.68828C14.8153 7.72053 14.801 7.73103 14.7763 7.73628C14.7515 7.74153 14.756 7.74153 14.7388 7.72578C14.7304 7.72074 14.7235 7.71372 14.7185 7.70535C14.7135 7.69698 14.7107 7.68751 14.7103 7.67778C14.7093 7.6474 14.7051 7.61722 14.6975 7.58778C14.6835 7.57741 14.6674 7.57024 14.6503 7.56678C14.5445 7.56678 14.5355 7.70403 14.543 7.75203C14.5355 7.76253 14.531 8.00628 14.6758 8.07528" fill="white"/>
<path d="M16.3948 10.8931C16.2785 11.0857 16.2079 11.3023 16.1882 11.5264C16.1686 11.7506 16.2005 11.9762 16.2815 12.1861C16.354 12.4081 16.5021 12.5976 16.7 12.7216C16.7292 12.7533 16.7655 12.7777 16.806 12.7926C16.8465 12.8075 16.8899 12.8126 16.9327 12.8074C16.9755 12.8022 17.0165 12.7868 17.0522 12.7627C17.0879 12.7385 17.1173 12.7061 17.138 12.6683C17.336 12.4351 17.3413 11.8471 17.4328 11.7301C17.5003 11.5126 17.663 11.5501 17.7425 11.6453C17.8147 11.7581 17.912 11.8525 18.0268 11.9213C18.0644 11.966 18.1106 12.0027 18.1626 12.0292C18.2146 12.0558 18.2714 12.0718 18.3296 12.0762C18.3879 12.0806 18.4464 12.0733 18.5018 12.0549C18.5572 12.0364 18.6084 12.0071 18.6523 11.9686C18.8171 11.8641 18.9363 11.7012 18.986 11.5126C19.0586 10.6206 19.0669 9.72451 19.0108 8.83133C19.001 8.76758 18.8188 7.72883 18.8188 7.71758C18.8188 7.70633 18.7925 7.18808 18.7738 7.06583C18.7693 7.01333 18.7588 6.99683 18.806 7.00283C18.8555 7.05533 18.86 7.06058 18.8915 7.07108C18.941 7.08233 18.986 6.98633 18.9568 6.89633C18.8068 6.57833 18.647 6.25508 18.4925 5.94233C18.4573 5.89508 18.4078 5.85233 18.347 5.94758C18.3103 5.98555 18.2815 6.03042 18.2622 6.07959C18.2429 6.12876 18.2335 6.18126 18.2345 6.23408C18.2488 6.45908 18.284 6.69533 18.2968 6.92333C18.359 7.30958 18.4205 7.70183 18.4828 8.09408C18.5405 8.92658 18.5578 9.68933 18.6148 10.5218C18.6281 10.8227 18.5589 11.1215 18.4145 11.3858C18.4145 11.3858 18.2788 11.4811 18.185 11.3806C18.0551 11.2224 17.941 11.0519 17.8445 10.8713C17.705 10.7288 17.612 10.7656 17.513 10.8713C17.2683 11.255 17.0735 11.6684 16.9333 12.1013C16.8838 12.1861 16.7495 12.2603 16.601 12.0961C16.4049 11.7287 16.3326 11.3079 16.3948 10.8961" fill="white"/>
<path d="M14.7634 6.03228C14.8583 6.11354 14.9314 6.21724 14.9761 6.33394C15.0207 6.45064 15.0355 6.57665 15.0191 6.70053C14.9839 6.93903 14.8931 7.20378 14.8256 7.16703C14.7581 7.13028 14.8736 6.92853 14.8069 6.71103C14.7656 6.56778 14.5301 6.31353 14.5549 6.23403C14.5448 6.20522 14.5432 6.17413 14.5502 6.14442C14.5572 6.11472 14.5726 6.08766 14.5946 6.06643C14.6165 6.04521 14.6441 6.03071 14.674 6.02466C14.7039 6.0186 14.7349 6.02125 14.7634 6.03228Z" fill="white"/>
<path d="M16.9558 11.1313C16.9718 10.7809 16.9595 10.4298 16.9191 10.0813C16.9086 9.80609 16.6401 7.53134 16.5831 7.31984C16.5171 6.92309 16.8463 7.26734 16.8081 7.03409C16.6956 6.74234 16.4128 6.31334 16.3251 6.05909C16.2688 5.94734 16.2921 5.85209 16.1751 6.03209C16.0724 6.3537 16.0359 6.69275 16.0678 7.02884C16.4041 8.6042 16.583 10.2091 16.6018 11.8198C16.7361 11.8198 16.8913 11.4756 16.9588 11.1313" fill="white"/>
<path d="M19.1118 8.75911C19.2745 8.85436 19.366 9.34711 19.3488 9.49036C19.318 9.74986 19.234 10.0311 19.1733 9.99361C19.1125 9.95611 19.186 9.60736 19.1545 9.50086C19.1163 9.34711 18.9025 9.06661 18.9243 8.98186C18.8808 8.80636 19.0188 8.73286 19.1118 8.75686" fill="white"/>
<path d="M8.1343 10.2301C8.2843 10.2938 8.3743 10.6598 8.3593 10.7656C8.32855 10.9561 8.2483 11.1578 8.1913 11.1406C8.1343 11.1233 8.2048 10.8541 8.17255 10.7746C8.1613 10.5788 7.94755 10.4746 7.95505 10.3928C7.91455 10.2391 8.04055 10.2128 8.13655 10.2338" fill="white"/>
<path d="M4.07584 5.91085C4.30084 5.98585 4.31284 6.3556 4.30084 6.46735C4.27009 6.6631 4.18984 6.87535 4.13134 6.8491C4.07284 6.82285 4.13134 6.55735 4.09984 6.4741C4.06759 6.35185 3.87484 6.1456 3.90034 6.08185C3.85684 5.9491 3.98509 5.88535 4.07809 5.91235" fill="white"/>
<path d="M8.49986 7.65958C8.41179 7.72884 8.35053 7.82657 8.32659 7.93603C8.30264 8.04549 8.3175 8.15987 8.36861 8.25958C8.39819 8.30372 8.44138 8.33699 8.49161 8.35432C8.54184 8.37165 8.59636 8.37209 8.64686 8.35558C8.81561 8.38183 8.91536 8.00008 8.91536 8.00008C8.91536 8.00008 8.92061 7.89433 8.72261 8.09533C8.63711 8.11708 8.62661 8.07958 8.60486 8.02633C8.58489 7.92717 8.59374 7.82437 8.63036 7.73008C8.66111 7.63408 8.59661 7.59208 8.49986 7.66108" fill="white"/>
<path d="M9.78744 5.76753C9.71239 5.82851 9.6505 5.90409 9.60551 5.98969C9.56052 6.07529 9.53336 6.16913 9.52569 6.26553C9.51894 6.39303 9.49719 6.39303 9.57294 6.47778C9.62919 6.56778 9.68469 6.55728 9.79419 6.48828C9.82234 6.46855 9.84626 6.44339 9.86455 6.41428C9.88284 6.38517 9.89513 6.3527 9.90069 6.31878C9.92769 6.16878 9.76269 6.38778 9.74019 6.22353C9.70494 6.06978 9.80994 6.01128 9.91119 5.85753C9.91119 5.75703 9.91119 5.68803 9.78744 5.76753Z" fill="white"/>
<path d="M10.8278 5.97462C10.7865 6.16466 10.7614 6.35785 10.7528 6.55212C10.722 6.69537 10.8885 6.75837 10.9613 6.57312C11.0362 6.37113 11.0761 6.1578 11.079 5.94237C11.046 5.72487 10.914 5.73612 10.8278 5.97462Z" fill="white"/>
<path d="M17.3751 9.72138C17.3991 9.69963 18.2976 8.97888 18.2976 8.97888C18.3898 8.94213 18.3726 9.35388 18.3283 9.34488C18.0558 9.64759 17.7334 9.90127 17.3751 10.0949C17.3316 10.1271 17.2866 9.81438 17.3751 9.72438" fill="white"/>
<path d="M18.1961 9.71625C18.3566 9.80625 18.4211 10.3252 18.4016 10.4662C18.4076 10.7422 18.2516 10.9642 18.1871 10.9327C18.1226 10.9012 18.1938 10.5885 18.1631 10.4767C18.0935 10.3079 18.0432 10.1318 18.0131 9.95175C17.9681 9.77625 18.0986 9.681 18.1953 9.71325" fill="white"/>
<path d="M12.8419 11.9634C12.9158 11.8695 13.0018 11.7858 13.0976 11.7144C13.1265 11.6999 13.1594 11.6956 13.1911 11.7023C13.2227 11.709 13.2511 11.7262 13.2716 11.7511C13.2874 11.8471 13.2161 11.9424 13.2386 12.0744C13.2566 12.1276 13.2716 12.1914 13.3586 12.1651C13.4154 12.115 13.4817 12.0769 13.5537 12.0531C13.6256 12.0294 13.7017 12.0206 13.7771 12.0271C13.8896 12.0271 13.8904 12.2386 13.8236 12.2386C13.6257 12.2931 13.4341 12.3685 13.2521 12.4636C13.2266 12.482 13.1949 12.4895 13.1638 12.4846C13.1328 12.4797 13.105 12.4627 13.0864 12.4374C13.069 12.4101 13.0584 12.379 13.0557 12.3467C13.053 12.3144 13.0581 12.282 13.0706 12.2521C13.0781 12.1456 13.0399 12.0879 12.9596 12.0931C12.8996 12.1351 12.8479 12.1561 12.8179 12.0826C12.8074 12.0241 12.8029 11.9926 12.8419 11.9604" fill="white"/>
<path d="M19.1445 12.2444C19.17 12.2706 19.1843 12.3057 19.1843 12.3423C19.1843 12.3789 19.17 12.414 19.1445 12.4402C19.08 12.5092 19.0373 12.5407 18.9728 12.6097C18.9443 12.6682 18.9255 12.7529 19.0155 12.7792C19.1828 12.8324 19.5728 12.5542 19.5728 12.5407C19.5936 12.5217 19.6083 12.4969 19.6149 12.4695C19.6214 12.442 19.6195 12.4133 19.6095 12.3869C19.5728 12.3397 19.491 12.3659 19.4363 12.3659C19.4078 12.3659 19.3215 12.3449 19.3613 12.2654C19.3901 12.2181 19.4137 12.1678 19.4318 12.1154C19.4565 12.0464 19.437 12.0044 19.3388 11.9654C19.2593 11.9523 19.1782 11.9523 19.0988 11.9654C19.041 11.9812 19.0238 12.0134 19.0103 12.0877C19.014 12.2039 19.0785 12.1987 19.146 12.2467" fill="white"/>
</g>
<defs>
<clipPath id="clip0_150_2179">
<rect width="24" height="24" fill="white"/>
</clipPath>
</defs>
</svg>
