<svg width="24" height="24" viewBox="0 0 24 24" fill="none" xmlns="http://www.w3.org/2000/svg">
<g clip-path="url(#clip0_143_1959)">
<path d="M2.11306 5.20068C1.33922 6.32387 0.751126 7.58503 0.394531 8.94053H5.8531L2.11306 5.20068Z" fill="#29337A"/>
<path d="M8.63924 0.480469C7.25664 0.88312 5.97618 1.52563 4.84863 2.36366L8.63924 6.15427V0.480469Z" fill="#29337A"/>
<path d="M5.12988 21.8368C6.18751 22.5768 7.36912 23.1498 8.63858 23.5195V18.3286L5.12988 21.8368Z" fill="#29337A"/>
<path d="M0.532227 15.5435C0.929001 16.8287 1.53701 18.021 2.31404 19.0817L5.85227 15.5435H0.532227Z" fill="#29337A"/>
<path d="M2.31149 4.92236C2.2444 5.01407 2.17828 5.1071 2.11348 5.20108L5.85352 8.94093H0.394953C0.306489 9.27761 0.234288 9.62078 0.174805 9.96866H7.35819L2.31149 4.92236Z" fill="white"/>
<path d="M4.85254 21.6388C4.94384 21.7069 5.03768 21.7716 5.13085 21.8368L8.63955 18.3285V23.5194C8.97664 23.6179 9.319 23.703 9.66728 23.7714V16.8242L4.85254 21.6388Z" fill="white"/>
<path d="M0.265625 14.5156C0.340106 14.8639 0.428013 15.2068 0.532033 15.5434H5.85213L2.31389 19.0816C2.69871 19.6074 3.12543 20.1008 3.58908 20.557L9.63043 14.5156H0.265625Z" fill="white"/>
<path d="M8.6391 0.480534V6.15434L4.84844 2.36393C4.32586 2.75255 3.83737 3.18398 3.38477 3.65103L9.66663 9.93289V0.228516C9.31854 0.297322 8.97619 0.382594 8.6391 0.480534Z" fill="white"/>
<path d="M8.63954 15.5068L8.60352 15.5431H8.63954V15.5068Z" fill="#D32030"/>
<path d="M9.63086 14.5152H9.66683V14.479L9.63086 14.5152Z" fill="#D32030"/>
<path d="M14.2495 9.96777H14.2148V10.0026L14.2495 9.96777Z" fill="#D32030"/>
<path d="M8.67507 8.9404L8.63965 8.90479V8.9404H8.67507Z" fill="#D32030"/>
<path d="M9.66699 9.93262V9.96808H9.70246L9.66699 9.93262Z" fill="#D32030"/>
<path d="M15.2422 20.8627V23.5527C16.5282 23.1927 17.7272 22.6252 18.7996 21.8859L15.8849 18.9712C15.652 19.7895 15.5668 20.2126 15.2422 20.8627Z" fill="#252F6C"/>
<path d="M15.9003 5.49591L19.0821 2.31406C17.939 1.47694 16.6422 0.838992 15.2422 0.446777V3.21006C15.6164 3.95943 15.6479 4.52882 15.9003 5.49591Z" fill="#252F6C"/>
<path d="M21.6365 19.1511C22.4378 18.0732 23.0623 16.8564 23.4679 15.543H18.0283L21.6365 19.1511Z" fill="#252F6C"/>
<path d="M23.6057 8.94062C23.2415 7.5565 22.6358 6.27168 21.8375 5.13086L18.0273 8.94062H23.6057Z" fill="#252F6C"/>
<path d="M16.6006 14.7187L17.4252 15.5434L21.3723 19.4905C21.4619 19.3783 21.551 19.2665 21.6366 19.1515L18.0285 15.5434H23.4681C23.5718 15.207 23.6598 14.8639 23.7341 14.5156H16.6777C16.6661 14.6613 16.6144 14.574 16.6006 14.7187Z" fill="#E7E7E7"/>
<path d="M15.7749 6.09758L19.3523 2.51972C19.2627 2.45021 19.1729 2.38105 19.0814 2.31396L15.8995 5.49581C15.9325 5.62162 15.7442 5.96874 15.7749 6.09758Z" fill="#E7E7E7"/>
<path d="M15.2416 2.98891V0.446535C14.9049 0.352193 14.5622 0.27224 14.2139 0.207031V1.44716C14.5963 1.86172 14.939 2.38242 15.2416 2.98891Z" fill="#E7E7E7"/>
<path d="M16.5194 9.96808H23.8253C23.766 9.6202 23.6937 9.27723 23.6052 8.94035H18.0268L21.837 5.13059C21.4624 4.59549 21.0461 4.09227 20.5914 3.62598L16.2998 7.91718C16.4154 8.69558 16.4671 9.14763 16.5194 9.96808Z" fill="#E7E7E7"/>
<path d="M15.7109 18.7976L18.7992 21.8862C19.3129 21.5324 19.7966 21.1387 20.2479 20.7113L16.1858 16.6489C16.0561 17.4002 15.9023 18.1259 15.7109 18.7976Z" fill="#E7E7E7"/>
<path d="M14.2139 22.4101V23.7923C14.5621 23.7275 14.9047 23.6471 15.2416 23.5528V20.8628C14.9388 21.4695 14.596 21.9961 14.2139 22.4101Z" fill="#E7E7E7"/>
<path d="M16.2998 7.91739L20.591 3.62618C20.2046 3.22941 19.7904 2.86015 19.3524 2.52002L15.9805 5.89247C16.1303 6.51887 16.1984 7.23586 16.2998 7.91739Z" fill="#D71F28"/>
<path d="M11.4014 0.0147948C11.6013 0.00511738 11.8006 0 12.0001 0C11.7995 0 11.5998 0.00511738 11.4014 0.0147948Z" fill="#D32030"/>
<path d="M11.9997 24C11.8002 24 11.6009 23.9945 11.4014 23.9849C11.5998 23.9949 11.7991 24 11.9997 24Z" fill="#D32030"/>
<path d="M12 24C12.7571 24 13.4965 23.9267 14.2146 23.7924V22.4102C13.5842 23.0934 12.8468 24 12 24Z" fill="#D32030"/>
<path d="M23.8246 9.96826H16.6136C16.7091 11.4733 16.6976 13.0209 16.5791 14.5156H23.7333C23.9065 13.7041 23.9993 12.8632 23.9993 12.0004C23.9993 11.3072 23.9375 10.6293 23.8246 9.96826Z" fill="#D71F28"/>
<path d="M16.6001 14.7188C16.5334 15.4278 16.3011 15.9803 16.1855 16.6491L20.2477 20.7113C20.6496 20.3304 21.0253 19.923 21.3716 19.4905L17.4247 15.5432L16.6001 14.7188Z" fill="#D71F28"/>
<path d="M14.2146 1.53643V0.207279C13.4967 0.0733153 12.7574 0 12 0C12.8468 0 13.5842 0.853386 14.2146 1.53643Z" fill="#D32030"/>
<path d="M15.2422 21.3816C15.5668 20.7313 15.8451 19.9827 16.0781 19.1646L15.2422 18.3286V21.3816Z" fill="#29337A"/>
<path d="M16.1822 5.21379C15.9294 4.24671 15.6164 3.36753 15.2422 2.61816V6.15336L16.1822 5.21379Z" fill="#29337A"/>
<path d="M16.8335 14.9516C16.8471 14.8069 16.8594 14.6615 16.8711 14.5156H16.3975L16.8335 14.9516Z" fill="white"/>
<path d="M15.2416 6.15381V2.61841C14.9388 2.01192 14.5963 1.49086 14.2139 1.07666V7.65862L16.2778 5.5947C16.2467 5.46585 16.2141 5.33964 16.1815 5.21383L15.2416 6.15381Z" fill="white"/>
<path d="M14.249 9.96828H16.9054C16.8534 9.14787 16.7704 8.3407 16.655 7.5625L14.249 9.96828Z" fill="white"/>
<path d="M14.2139 22.9239C14.5963 22.5093 14.9388 21.9886 15.2416 21.3821V18.3291L16.0776 19.1651C16.2693 18.493 16.4301 17.7751 16.5602 17.0238L14.2139 14.6777L14.2139 22.9239Z" fill="white"/>
<path d="M14.2144 22.9234V14.6773L16.5605 17.0235C16.6759 16.3545 16.7667 15.6606 16.8331 14.9515L16.3971 14.5155H16.8708C16.9892 13.0207 17.0008 11.4731 16.9053 9.9681H14.2489L16.6547 7.56232C16.5533 6.88059 16.4279 6.22121 16.278 5.59461L14.2145 7.65854V1.07657C13.584 0.393329 12.8466 0 11.9998 0C11.8003 0 11.6009 0.00511738 11.4011 0.0147948C10.8108 0.0443337 10.232 0.11694 9.66698 0.228357V9.93268L3.38497 3.65082C2.99899 4.04911 2.63996 4.4735 2.31138 4.92201L6.32994 8.94057L7.35803 9.9683H0.1747C0.0621686 10.6292 0 11.3071 0 12.0002C0 12.8633 0.0932275 13.7039 0.266002 14.5155H9.63101L3.58961 20.5569C3.98522 20.9455 4.40642 21.3074 4.85229 21.6386L9.66683 16.824V23.7713C10.2318 23.8827 10.811 23.9553 11.4013 23.9849C11.6008 23.9945 11.8001 24 11.9996 24C12.8466 24 13.584 23.6067 14.2144 22.9234Z" fill="#E51D35"/>
</g>
<defs>
<clipPath id="clip0_143_1959">
<rect width="24" height="24" fill="white"/>
</clipPath>
</defs>
</svg>
