<svg width="14" height="16" viewBox="0 0 14 16" fill="none" xmlns="http://www.w3.org/2000/svg">
<path d="M7.00021 16.0004C6.43884 16.0032 5.88495 15.8716 5.38492 15.6164C4.88489 15.3612 4.45327 14.99 4.12621 14.5337C1.58554 11.029 0.296875 8.39436 0.296875 6.70236C0.296875 4.92452 1.00312 3.2195 2.26024 1.96238C3.51735 0.705266 5.22237 -0.000976562 7.00021 -0.000976562C8.77804 -0.000976562 10.4831 0.705266 11.7402 1.96238C12.9973 3.2195 13.7035 4.92452 13.7035 6.70236C13.7035 8.39436 12.4149 11.029 9.87421 14.5337C9.54715 14.99 9.11553 15.3612 8.6155 15.6164C8.11547 15.8716 7.56158 16.0032 7.00021 16.0004ZM7.00021 1.45436C5.60849 1.45595 4.27422 2.00951 3.29012 2.9936C2.30603 3.9777 1.75246 5.31197 1.75087 6.70369C1.75087 8.04369 3.01287 10.5217 5.30354 13.681C5.498 13.9489 5.75312 14.1669 6.04802 14.3172C6.34291 14.4675 6.66921 14.5459 7.00021 14.5459C7.33121 14.5459 7.6575 14.4675 7.9524 14.3172C8.2473 14.1669 8.50241 13.9489 8.69688 13.681C10.9875 10.5217 12.2495 8.04369 12.2495 6.70369C12.248 5.31197 11.6944 3.9777 10.7103 2.9936C9.7262 2.00951 8.39193 1.45595 7.00021 1.45436Z" fill="#73308A"/>
</svg>
