<svg width="16" height="16" viewBox="0 0 16 16" fill="none" xmlns="http://www.w3.org/2000/svg">
<g clip-path="url(#clip0_26525_42179)">
<path d="M8.00004 8C8.52745 8 9.04303 7.8436 9.48156 7.55059C9.92009 7.25757 10.2619 6.84109 10.4637 6.35382C10.6656 5.86655 10.7184 5.33038 10.6155 4.81309C10.5126 4.29581 10.2586 3.82066 9.88566 3.44772C9.51272 3.07478 9.03756 2.8208 8.52028 2.71791C8.003 2.61501 7.46682 2.66782 6.97955 2.86965C6.49228 3.07149 6.0758 3.41328 5.78279 3.85181C5.48977 4.29034 5.33337 4.80592 5.33337 5.33333C5.33337 6.04058 5.61432 6.71885 6.11442 7.21895C6.61452 7.71905 7.29279 8 8.00004 8ZM8.00004 4C8.26375 4 8.52153 4.0782 8.7408 4.22471C8.96006 4.37122 9.13096 4.57945 9.23188 4.82309C9.33279 5.06672 9.3592 5.33481 9.30775 5.59345C9.2563 5.8521 9.12932 6.08967 8.94285 6.27614C8.75638 6.46261 8.5188 6.5896 8.26016 6.64105C8.00152 6.69249 7.73343 6.66609 7.48979 6.56517C7.24616 6.46426 7.03792 6.29336 6.89141 6.07409C6.7449 5.85483 6.6667 5.59704 6.6667 5.33333C6.6667 4.97971 6.80718 4.64057 7.05723 4.39052C7.30728 4.14048 7.64642 4 8.00004 4ZM13.7734 6.10467L13.294 5.94533C13.3803 5.19862 13.3077 4.4421 13.0811 3.72539C12.8545 3.00868 12.4789 2.34798 11.979 1.78659C11.4792 1.22521 10.8663 0.77584 10.1805 0.467942C9.49479 0.160045 8.75172 0.000578321 8.00004 0C7.23854 0.00029398 6.48596 0.163796 5.79298 0.47949C5.10001 0.795184 4.48275 1.25574 3.98279 1.83012C3.48282 2.4045 3.11178 3.07936 2.89464 3.80925C2.67751 4.53913 2.61934 5.30707 2.72404 6.06133C2.08606 6.18029 1.49612 6.48128 1.02537 6.928C0.699486 7.23783 0.440417 7.61104 0.264089 8.02469C0.087762 8.43834 -0.00209692 8.88368 3.7138e-05 9.33333V12.05C0.0014382 12.7709 0.235898 13.472 0.668431 14.0487C1.10096 14.6254 1.70838 15.0468 2.40004 15.25L4.31337 15.85C4.63475 15.95 4.96946 16.0006 5.30604 16C5.61136 15.9996 5.91523 15.9579 6.20937 15.876L10.0627 14.736C10.406 14.6423 10.7681 14.6423 11.1114 14.736L12.7027 15.2693C13.0949 15.3648 13.5037 15.37 13.8981 15.2845C14.2926 15.199 14.6626 15.0251 14.9801 14.7758C15.2976 14.5266 15.5543 14.2085 15.731 13.8455C15.9077 13.4826 15.9997 13.0843 16 12.6807V9.248C15.9985 8.55827 15.7837 7.88589 15.3851 7.32303C14.9865 6.76017 14.4235 6.33437 13.7734 6.104V6.10467ZM5.17204 2.508C5.54288 2.13566 5.98359 1.84021 6.46889 1.63862C6.9542 1.43703 7.47453 1.33325 8.00004 1.33325C8.52555 1.33325 9.04588 1.43703 9.53118 1.63862C10.0165 1.84021 10.4572 2.13566 10.828 2.508C11.5761 3.26076 11.9966 4.27854 11.998 5.33982C11.9994 6.4011 11.5815 7.41997 10.8354 8.17467L8.4667 10.478C8.34308 10.5992 8.17684 10.6671 8.0037 10.6671C7.83057 10.6671 7.66433 10.5992 7.5407 10.478L5.17204 8.18467C4.42235 7.43026 4.00158 6.40989 4.00158 5.34633C4.00158 4.28277 4.42235 3.26241 5.17204 2.508ZM14.6667 12.6807C14.6671 12.8826 14.6214 13.0819 14.5332 13.2635C14.4449 13.4452 14.3164 13.6042 14.1574 13.7287C14.0071 13.8495 13.8321 13.9357 13.6447 13.9812C13.4574 14.0267 13.2623 14.0304 13.0734 13.992L11.51 13.4667C10.9187 13.2968 10.292 13.2931 9.6987 13.456L5.8427 14.5947C5.47222 14.6969 5.08014 14.6902 4.71337 14.5753L2.78404 13.9753C2.36647 13.8546 1.99934 13.6016 1.73777 13.2545C1.4762 12.9073 1.3343 12.4847 1.33337 12.05V9.33333C1.33187 9.06386 1.38551 8.79692 1.49099 8.54894C1.59646 8.30095 1.75155 8.07717 1.9467 7.89133C2.25221 7.60018 2.64138 7.41223 3.05937 7.354C3.32811 8.02012 3.72829 8.62527 4.23604 9.13333L6.61404 11.4353C6.98571 11.7993 7.48519 12.0031 8.00537 12.0031C8.52555 12.0031 9.02503 11.7993 9.3967 11.4353L11.772 9.12667C12.3039 8.59269 12.7159 7.95159 12.9807 7.246L13.3387 7.36467C13.727 7.50379 14.0628 7.7593 14.3005 8.09636C14.5382 8.43341 14.666 8.83558 14.6667 9.248V12.6807Z" fill="#73308A"/>
</g>
<defs>
<clipPath id="clip0_26525_42179">
<rect width="16" height="16" fill="white"/>
</clipPath>
</defs>
</svg>
