<svg width="24" height="24" viewBox="0 0 24 24" fill="none" xmlns="http://www.w3.org/2000/svg">
<g clip-path="url(#clip0_26525_42146)">
<path d="M5.33333 13.3337C6.06971 13.3337 6.66667 12.7367 6.66667 12.0003C6.66667 11.2639 6.06971 10.667 5.33333 10.667C4.59695 10.667 4 11.2639 4 12.0003C4 12.7367 4.59695 13.3337 5.33333 13.3337Z" fill="#808080"/>
<path d="M12.0003 13.3337C12.7367 13.3337 13.3337 12.7367 13.3337 12.0003C13.3337 11.2639 12.7367 10.667 12.0003 10.667C11.2639 10.667 10.667 11.2639 10.667 12.0003C10.667 12.7367 11.2639 13.3337 12.0003 13.3337Z" fill="#808080"/>
<path d="M18.6663 13.3337C19.4027 13.3337 19.9997 12.7367 19.9997 12.0003C19.9997 11.2639 19.4027 10.667 18.6663 10.667C17.93 10.667 17.333 11.2639 17.333 12.0003C17.333 12.7367 17.93 13.3337 18.6663 13.3337Z" fill="#808080"/>
</g>
<defs>
<clipPath id="clip0_26525_42146">
<rect width="16" height="16" fill="white" transform="translate(4 4)"/>
</clipPath>
</defs>
</svg>
