<svg width="12" height="16" viewBox="0 0 12 16" fill="none" xmlns="http://www.w3.org/2000/svg">
<path d="M8.00033 16H4.00033C2.16233 16 0.666992 14.5047 0.666992 12.6667V3.33333C0.666992 1.49533 2.16233 0 4.00033 0H8.00033C9.83832 0 11.3337 1.49533 11.3337 3.33333V12.6667C11.3337 14.5047 9.83832 16 8.00033 16ZM4.00033 1.33333C2.89766 1.33333 2.00033 2.23067 2.00033 3.33333V12.6667C2.00033 13.7693 2.89766 14.6667 4.00033 14.6667H8.00033C9.10299 14.6667 10.0003 13.7693 10.0003 12.6667V3.33333C10.0003 2.23067 9.10299 1.33333 8.00033 1.33333H4.00033ZM7.33366 12.6667C7.33366 12.2987 7.03499 12 6.66699 12H5.33366C4.96566 12 4.66699 12.2987 4.66699 12.6667C4.66699 13.0347 4.96566 13.3333 5.33366 13.3333H6.66699C7.03499 13.3333 7.33366 13.0347 7.33366 12.6667Z" fill="#73308A"/>
</svg>
