<svg width="10" height="5" viewBox="0 0 10 5" fill="none" xmlns="http://www.w3.org/2000/svg">
<path d="M8.91398 0.78876C8.85975 0.734085 8.79523 0.690688 8.72415 0.661073C8.65306 0.631458 8.57682 0.616211 8.49981 0.616211C8.4228 0.616211 8.34656 0.631458 8.27548 0.661073C8.20439 0.690688 8.13987 0.734085 8.08565 0.78876L5.41398 3.46043C5.35975 3.5151 5.29523 3.5585 5.22415 3.58811C5.15306 3.61773 5.07682 3.63298 4.99981 3.63298C4.9228 3.63298 4.84656 3.61773 4.77548 3.58811C4.70439 3.5585 4.63987 3.5151 4.58564 3.46043L1.91398 0.78876C1.85975 0.734085 1.79523 0.690688 1.72415 0.661073C1.65306 0.631458 1.57682 0.616211 1.49981 0.616211C1.4228 0.616211 1.34656 0.631458 1.27547 0.661073C1.20439 0.690688 1.13987 0.734085 1.08564 0.78876C0.976998 0.898055 0.916016 1.0459 0.916016 1.20001C0.916016 1.35412 0.976998 1.50197 1.08564 1.61126L3.76314 4.28876C4.09127 4.61648 4.53606 4.80055 4.99981 4.80055C5.46356 4.80055 5.90835 4.61648 6.23648 4.28876L8.91398 1.61126C9.02262 1.50197 9.08361 1.35412 9.08361 1.20001C9.08361 1.0459 9.02262 0.898055 8.91398 0.78876Z" fill="#808080"/>
</svg>
