<svg width="21" height="17" viewBox="0 0 21 17" fill="none" xmlns="http://www.w3.org/2000/svg">
<path d="M21 1.5625C21 0.83625 20.4137 0.25 19.6875 0.25H5.6875C4.96125 0.25 4.375 0.83625 4.375 1.5625C4.375 2.28875 4.96125 2.875 5.6875 2.875H19.6875C20.4137 2.875 21 2.28875 21 1.5625ZM5.6875 14.25H19.6875C20.4137 14.25 21 14.8363 21 15.5625C21 16.2887 20.4137 16.875 19.6875 16.875H5.6875C4.96125 16.875 4.375 16.2887 4.375 15.5625C4.375 14.8363 4.96125 14.25 5.6875 14.25ZM1.3125 7.25H15.3125C16.0388 7.25 16.625 7.83625 16.625 8.5625C16.625 9.28875 16.0388 9.875 15.3125 9.875H1.3125C0.58625 9.875 0 9.28875 0 8.5625C0 7.83625 0.58625 7.25 1.3125 7.25Z" fill="#6D6D6D"/>
</svg>
