<svg width="16" height="16" viewBox="0 0 16 16" fill="none" xmlns="http://www.w3.org/2000/svg">
<path d="M4.96787 9.3451C2.12707 9.60188 -0.0372287 12.0023 0.000485413 14.8544V14.9991C0.000485413 15.5513 0.448149 15.9989 1.00036 15.9989C1.55258 15.9989 2.00024 15.5513 2.00024 14.9991V14.8144C1.97018 13.0632 3.26252 11.5699 4.99987 11.3482C6.8338 11.1663 8.46794 12.5056 8.6498 14.3396C8.66055 14.448 8.66598 14.5568 8.66608 14.6658V14.9991C8.66608 15.5513 9.11374 15.999 9.66595 15.999C10.2182 15.999 10.6658 15.5513 10.6658 14.9991V14.6658C10.6626 11.7173 8.26972 9.32976 5.32127 9.33301C5.20335 9.33314 5.08548 9.33717 4.96787 9.3451Z" fill="#73308A"/>
<path d="M5.33349 7.99999C7.54235 7.99999 9.333 6.20934 9.333 4.00048C9.333 1.79163 7.54235 0.000976562 5.33349 0.000976562C3.12464 0.000976562 1.33398 1.79163 1.33398 4.00048C1.3362 6.20846 3.12555 7.99781 5.33349 7.99999ZM5.33349 2.00073C6.43792 2.00073 7.33325 2.89606 7.33325 4.00048C7.33325 5.10491 6.43792 6.00024 5.33349 6.00024C4.22907 6.00024 3.33374 5.10491 3.33374 4.00048C3.33374 2.89606 4.22907 2.00073 5.33349 2.00073Z" fill="#73308A"/>
<path d="M14.6651 5.25C13.8928 5.28846 13.2968 5.94401 13.3319 6.71648C13.367 5.94401 12.7711 5.28846 11.9987 5.25C11.2264 5.28846 10.6304 5.94401 10.6655 6.71648C10.6655 7.86968 12.1694 9.22082 12.9186 9.82209C13.1602 10.0155 13.5036 10.0155 13.7452 9.82209C14.4944 9.22217 15.9982 7.86968 15.9982 6.71648C16.0333 5.94401 15.4374 5.2885 14.6651 5.25Z" fill="#73308A"/>
</svg>
