<svg width="16" height="16" viewBox="0 0 16 16" fill="none" xmlns="http://www.w3.org/2000/svg">
<g clip-path="url(#clip0_26525_60784)">
<path d="M5.97667 16H2.66667C1.95942 16 1.28115 15.719 0.781049 15.219C0.280952 14.7189 0 14.0406 0 13.3333V10C0 9.29276 0.280952 8.61448 0.781049 8.11438C1.28115 7.61428 1.95942 7.33333 2.66667 7.33333H8.57133C8.93213 7.3335 9.28678 7.42681 9.60095 7.60422C9.91513 7.78162 10.1782 8.03713 10.3647 8.346L12.5093 5.98933C12.6867 5.79426 12.9008 5.63606 13.1394 5.52377C13.378 5.41149 13.6363 5.34732 13.8997 5.33494C14.1631 5.32256 14.4263 5.3622 14.6744 5.45161C14.9224 5.54101 15.1504 5.67843 15.3453 5.856C15.7342 6.21329 15.9673 6.70899 15.9944 7.23641C16.0214 7.76384 15.8403 8.28079 15.49 8.676L10.9567 13.7673C10.3307 14.4693 9.56352 15.0311 8.70529 15.4159C7.84706 15.8007 6.9172 15.9997 5.97667 16ZM2.66667 8.66667C2.31304 8.66667 1.97391 8.80714 1.72386 9.05719C1.47381 9.30724 1.33333 9.64638 1.33333 10V13.3333C1.33333 13.687 1.47381 14.0261 1.72386 14.2761C1.97391 14.5262 2.31304 14.6667 2.66667 14.6667H5.97667C6.72861 14.6664 7.47201 14.5072 8.15813 14.1995C8.84425 13.8918 9.45761 13.4426 9.958 12.8813L14.4947 7.78933C14.6125 7.65666 14.6734 7.48304 14.6644 7.30585C14.6555 7.12866 14.5773 6.96209 14.4467 6.842C14.3139 6.72262 14.1398 6.65972 13.9613 6.66667C13.8729 6.67041 13.7861 6.69173 13.7059 6.72939C13.6258 6.76705 13.554 6.82029 13.4947 6.886L10.544 10.1333C10.4145 10.4918 10.19 10.8085 9.8946 11.0494C9.59919 11.2903 9.24391 11.4465 8.86667 11.5013L5.426 11.9933C5.25096 12.0184 5.07311 11.973 4.93158 11.867C4.79005 11.7609 4.69644 11.603 4.67133 11.428C4.64623 11.253 4.69168 11.0751 4.7977 10.9336C4.90372 10.7921 5.06162 10.6984 5.23667 10.6733L8.678 10.182C8.86902 10.1553 9.04279 10.0571 9.1642 9.9072C9.2856 9.75732 9.34559 9.56695 9.33205 9.37454C9.3185 9.18213 9.23243 9.00204 9.09123 8.87065C8.95003 8.73925 8.76421 8.66635 8.57133 8.66667H2.66667ZM7.33333 6.04933C7.03117 6.05015 6.73782 5.94758 6.502 5.75867C5.36067 4.84267 4 3.46667 4 2.13333C3.98363 1.58558 4.18485 1.05363 4.55965 0.653843C4.93445 0.254056 5.45233 0.0189681 6 0C6.49823 0.00194055 6.97625 0.197212 7.33333 0.544667C7.69042 0.197212 8.16844 0.00194055 8.66667 0C9.21434 0.0189681 9.73221 0.254056 10.107 0.653843C10.4818 1.05363 10.683 1.58558 10.6667 2.13333C10.6667 3.46667 9.306 4.84267 8.164 5.75933C7.92826 5.94786 7.63518 6.05018 7.33333 6.04933ZM6 1.33333C5.80623 1.35278 5.62783 1.44748 5.50317 1.59708C5.3785 1.74669 5.31751 1.93924 5.33333 2.13333C5.33333 2.73333 6.10067 3.72667 7.33733 4.71933C8.566 3.72667 9.33333 2.73333 9.33333 2.13333C9.34915 1.93924 9.28817 1.74669 9.1635 1.59708C9.03883 1.44748 8.86043 1.35278 8.66667 1.33333C8.4729 1.35278 8.2945 1.44748 8.16983 1.59708C8.04516 1.74669 7.98418 1.93924 8 2.13333C8 2.31014 7.92976 2.47971 7.80474 2.60474C7.67971 2.72976 7.51014 2.8 7.33333 2.8C7.15652 2.8 6.98695 2.72976 6.86193 2.60474C6.7369 2.47971 6.66667 2.31014 6.66667 2.13333C6.68248 1.93924 6.6215 1.74669 6.49683 1.59708C6.37217 1.44748 6.19377 1.35278 6 1.33333Z" fill="#808080"/>
</g>
<defs>
<clipPath id="clip0_26525_60784">
<rect width="16" height="16" fill="white"/>
</clipPath>
</defs>
</svg>
