<svg width="16" height="16" viewBox="0 0 16 16" fill="none" xmlns="http://www.w3.org/2000/svg">
<path d="M15.414 6.0464L10.3573 0.989066C9.7315 0.365059 8.88378 0.0146484 8.00001 0.0146484C7.11623 0.0146484 6.26851 0.365059 5.64267 0.989066L0.586008 6.0464C0.399625 6.23159 0.251855 6.45193 0.151263 6.69466C0.0506715 6.93738 -0.000740267 7.19766 8.05299e-06 7.4604V14.0051C8.05299e-06 14.5355 0.210722 15.0442 0.585795 15.4193C0.960867 15.7944 1.46958 16.0051 2.00001 16.0051H14C14.5304 16.0051 15.0391 15.7944 15.4142 15.4193C15.7893 15.0442 16 14.5355 16 14.0051V7.4604C16.0008 7.19766 15.9493 6.93738 15.8488 6.69466C15.7482 6.45193 15.6004 6.23159 15.414 6.0464ZM10 14.6717H6.00001V12.0491C6.00001 11.5186 6.21072 11.0099 6.58579 10.6349C6.96087 10.2598 7.46958 10.0491 8.00001 10.0491C8.53044 10.0491 9.03915 10.2598 9.41422 10.6349C9.7893 11.0099 10 11.5186 10 12.0491V14.6717ZM14.6667 14.0051C14.6667 14.1819 14.5964 14.3514 14.4714 14.4765C14.3464 14.6015 14.1768 14.6717 14 14.6717H11.3333V12.0491C11.3333 11.165 10.9822 10.3172 10.357 9.69204C9.73191 9.06692 8.88406 8.71573 8.00001 8.71573C7.11595 8.71573 6.26811 9.06692 5.64299 9.69204C5.01786 10.3172 4.66667 11.165 4.66667 12.0491V14.6717H2.00001C1.8232 14.6717 1.65363 14.6015 1.5286 14.4765C1.40358 14.3514 1.33334 14.1819 1.33334 14.0051V7.4604C1.33396 7.28372 1.40413 7.11439 1.52867 6.98907L6.58534 1.93373C6.96114 1.55969 7.46979 1.34969 8.00001 1.34969C8.53023 1.34969 9.03888 1.55969 9.41467 1.93373L14.4713 6.99107C14.5954 7.1159 14.6655 7.28441 14.6667 7.4604V14.0051Z" fill="#808080"/>
</svg>
