<svg width="16" height="16" viewBox="0 0 16 16" fill="none" xmlns="http://www.w3.org/2000/svg">
<g clip-path="url(#clip0_2565_21729)">
<path d="M12.6667 0.666672H3.33333C2.4496 0.66773 1.60237 1.01926 0.97748 1.64415C0.352588 2.26904 0.00105857 3.11628 0 4.00001L0 12C0.00105857 12.8837 0.352588 13.731 0.97748 14.3559C1.60237 14.9808 2.4496 15.3323 3.33333 15.3333H12.6667C13.5504 15.3323 14.3976 14.9808 15.0225 14.3559C15.6474 13.731 15.9989 12.8837 16 12V4.00001C15.9989 3.11628 15.6474 2.26904 15.0225 1.64415C14.3976 1.01926 13.5504 0.66773 12.6667 0.666672ZM3.33333 2.00001H12.6667C13.0659 2.00079 13.4557 2.12101 13.786 2.34521C14.1163 2.5694 14.3719 2.8873 14.52 3.25801L9.41467 8.36401C9.03895 8.73821 8.53028 8.94832 8 8.94832C7.46972 8.94832 6.96105 8.73821 6.58533 8.36401L1.48 3.25801C1.6281 2.8873 1.88374 2.5694 2.21403 2.34521C2.54432 2.12101 2.93414 2.00079 3.33333 2.00001ZM12.6667 14H3.33333C2.8029 14 2.29419 13.7893 1.91912 13.4142C1.54405 13.0391 1.33333 12.5304 1.33333 12V5.00001L5.64267 9.30667C6.26842 9.93084 7.11617 10.2814 8 10.2814C8.88383 10.2814 9.73158 9.93084 10.3573 9.30667L14.6667 5.00001V12C14.6667 12.5304 14.456 13.0391 14.0809 13.4142C13.7058 13.7893 13.1971 14 12.6667 14Z" fill="#73308A"/>
</g>
<defs>
<clipPath id="clip0_2565_21729">
<rect width="16" height="16" fill="white"/>
</clipPath>
</defs>
</svg>
