<svg width="16" height="16" viewBox="0 0 16 16" fill="none" xmlns="http://www.w3.org/2000/svg">
<g clip-path="url(#clip0_26525_22884)">
<path d="M14.6667 3.76243V1.66643C14.6667 1.11443 14.2187 0.666427 13.6667 0.666427C13.1147 0.666427 12.6667 1.11443 12.6667 1.66643V2.39243L10.0513 0.627094C8.80533 -0.21424 7.194 -0.21424 5.94933 0.627094L1.616 3.55109C0.604 4.23443 0 5.37043 0 6.59043V12.3331C0 14.3544 1.64533 15.9998 3.66667 15.9998H12.3333C14.3547 15.9998 16 14.3544 16 12.3331V6.59043C16 5.48843 15.5073 4.45576 14.6667 3.76243ZM14 12.3331C14 13.2524 13.2527 13.9998 12.3333 13.9998H3.66667C2.74733 13.9998 2 13.2524 2 12.3331V6.59043C2 6.03576 2.27467 5.51976 2.73467 5.20909L7.06867 2.28509C7.35133 2.09376 7.676 1.99776 8 1.99776C8.324 1.99776 8.64933 2.09376 8.932 2.28509L13.2653 5.20909C13.7247 5.51976 14 6.03576 14 6.59043V12.3331ZM11.3333 9.33309C11.3333 9.88509 10.8853 10.3331 10.3333 10.3331H9V11.6664C9 12.2184 8.552 12.6664 8 12.6664C7.448 12.6664 7 12.2184 7 11.6664V10.3331H5.66667C5.11467 10.3331 4.66667 9.88509 4.66667 9.33309C4.66667 8.78109 5.11467 8.33309 5.66667 8.33309H7V6.99976C7 6.44776 7.448 5.99976 8 5.99976C8.552 5.99976 9 6.44776 9 6.99976V8.33309H10.3333C10.8853 8.33309 11.3333 8.78109 11.3333 9.33309Z" fill="#73308A"/>
</g>
<defs>
<clipPath id="clip0_26525_22884">
<rect width="16" height="16" fill="white"/>
</clipPath>
</defs>
</svg>
