<svg width="16" height="16" viewBox="0 0 16 16" fill="none" xmlns="http://www.w3.org/2000/svg">
<g clip-path="url(#clip0_26525_37042)">
<path d="M12.6666 5.616V4.66667C12.6666 3.42899 12.1749 2.242 11.2997 1.36684C10.4246 0.491665 9.2376 0 7.99992 0C6.76224 0 5.57526 0.491665 4.70009 1.36684C3.82492 2.242 3.33325 3.42899 3.33325 4.66667V5.616C2.73949 5.87514 2.23411 6.30168 1.87892 6.84347C1.52372 7.38527 1.3341 8.01882 1.33325 8.66667V12.6667C1.33431 13.5504 1.68584 14.3976 2.31073 15.0225C2.93562 15.6474 3.78286 15.9989 4.66658 16H11.3333C12.217 15.9989 13.0642 15.6474 13.6891 15.0225C14.314 14.3976 14.6655 13.5504 14.6666 12.6667V8.66667C14.6657 8.01882 14.4761 7.38527 14.1209 6.84347C13.7657 6.30168 13.2603 5.87514 12.6666 5.616ZM4.66658 4.66667C4.66659 3.78261 5.01777 2.93477 5.6429 2.30964C6.26802 1.68452 7.11586 1.33333 7.99992 1.33333C8.88397 1.33333 9.73182 1.68452 10.3569 2.30964C10.9821 2.93477 11.3333 3.78261 11.3333 4.66667V5.33333H4.66658V4.66667ZM13.3333 12.6667C13.3333 13.1971 13.1225 13.7058 12.7475 14.0809C12.3724 14.456 11.8637 14.6667 11.3333 14.6667H4.66658C4.13615 14.6667 3.62744 14.456 3.25237 14.0809C2.8773 13.7058 2.66659 13.1971 2.66659 12.6667V8.66667C2.66659 8.13623 2.8773 7.62753 3.25237 7.25245C3.62744 6.87738 4.13615 6.66667 4.66658 6.66667H11.3333C11.8637 6.66667 12.3724 6.87738 12.7475 7.25245C13.1225 7.62753 13.3333 8.13623 13.3333 8.66667V12.6667Z" fill="#73308A"/>
<path d="M7.99992 9.3335C7.82311 9.3335 7.65354 9.40373 7.52851 9.52876C7.40349 9.65378 7.33325 9.82335 7.33325 10.0002V11.3335C7.33325 11.5103 7.40349 11.6799 7.52851 11.8049C7.65354 11.9299 7.82311 12.0002 7.99992 12.0002C8.17673 12.0002 8.3463 11.9299 8.47132 11.8049C8.59635 11.6799 8.66659 11.5103 8.66659 11.3335V10.0002C8.66659 9.82335 8.59635 9.65378 8.47132 9.52876C8.3463 9.40373 8.17673 9.3335 7.99992 9.3335Z" fill="#73308A"/>
</g>
<defs>
<clipPath id="clip0_26525_37042">
<rect width="16" height="16" fill="white"/>
</clipPath>
</defs>
</svg>
